#!OML:ASF H:\Terrain\Patient Classification 1\Terrain2\Thursday\justin.ASF
:FULLY-SPECIFIED
:DEGREES
1947
root 9.32673 17.653 20.9473 399.22 -85.4441 -39.3772
lowerback 6.87199 1.1094 0.914012
upperback 2.59909 1.49784 2.94654
thorax -1.22638 0.703708 2.40522
lowerneck -9.6846 -0.396324 -8.91284
upperneck 41.2659 -1.94099 3.68234
head 16.6341 -2.38325 2.74479
rclavicle 1.83876e-014 3.53837e-014
rhumerus -34.2215 -14.5659 -71.8533
rradius 31.213
rwrist -12.3157
rhand -25.529 8.93145
rfingers 7.12502
rthumb 1.00066 -21.0459
lclavicle 1.83876e-014 3.53837e-014
lhumerus -34.3429 6.62374 76.2454
lradius 63.7911
lwrist 16.0877
lhand -24.9117 18.233
lfingers 7.12502
lthumb 1.59689 48.2068
rfemur -12.8461 2.36323 21.9002
rtibia 38.9399
rfoot -25.4202 13.0954
rtoes 0.602781
lfemur -14.1094 -1.73099 -16.6866
ltibia 35.4979
lfoot -15.0225 -12.6088
ltoes 20.5339
1948
root 9.30918 17.648 20.9657 399.085 -85.6101 -39.3336
lowerback 6.97387 1.09288 0.822855
upperback 2.69397 1.46665 2.95151
thorax -1.18643 0.686007 2.46344
lowerneck -9.76911 -0.317882 -8.91636
upperneck 41.203 -1.75322 3.57891
head 16.6021 -2.31348 2.72847
rclavicle -3.97569e-015 1.90833e-014
rhumerus -34.0496 -14.52 -71.9016
rradius 31.094
rwrist -12.4863
rhand -25.4905 9.35949
rfingers 7.12502
rthumb 1.03783 -20.6177
lclavicle -3.97569e-015 1.90833e-014
lhumerus -34.2523 6.36138 76.1854
lradius 63.9636
lwrist 15.3107
lhand -24.4966 17.8153
lfingers 7.12502
lthumb 1.99774 47.7857
rfemur -12.717 2.49361 21.7272
rtibia 39.0093
rfoot -25.6015 12.9637
rtoes 0.403804
lfemur -13.8957 -2.04665 -16.8845
ltibia 35.4797
lfoot -15.2034 -12.5045
ltoes 23.6545
1949
root 9.29141 17.6415 20.9841 402.81 -85.4427 -43.0814
lowerback 7.01467 0.979078 1.09295
upperback 2.77099 1.3262 3.21889
thorax -1.12408 0.611401 2.59965
lowerneck -9.94966 -0.227927 -9.18928
upperneck 41.2173 -1.44604 3.40919
head 16.6325 -2.24917 2.75139
rclavicle 1.55052e-014 2.14687e-014
rhumerus -33.8013 -14.4229 -71.7197
rradius 31.1303
rwrist -12.5739
rhand -25.3103 9.29519
rfingers 7.12502
rthumb 1.21189 -20.6811
lclavicle 1.55052e-014 2.14687e-014
lhumerus -34.2997 6.57364 76.3065
lradius 64.0923
lwrist 14.5008
lhand -24.1469 17.2882
lfingers 7.12502
lthumb 2.33546 47.2551
rfemur -12.6482 2.57193 22.0429
rtibia 39.0337
rfoot -25.6885 12.9393
rtoes 0.631558
lfemur -13.7632 -2.35534 -16.5863
ltibia 35.439
lfoot -15.4338 -12.2628
ltoes 23.8164
1950
root 9.27261 17.6321 21.0069 405.378 -85.2884 -45.7056
lowerback 7.07922 0.955443 1.48476
upperback 2.82642 1.31564 3.32622
thorax -1.09549 0.604468 2.49084
lowerneck -10.092 -0.240605 -9.48587
upperneck 41.3074 -1.4322 3.55756
head 16.7231 -2.27337 2.87666
rclavicle -1.53064e-014 -6.36111e-015
rhumerus -33.8555 -15.0767 -71.3792
rradius 31.2893
rwrist -12.4623
rhand -24.8304 9.56949
rfingers 7.12502
rthumb 1.67538 -20.4037
lclavicle -1.53064e-014 -6.36111e-015
lhumerus -34.2827 6.2322 76.3726
lradius 64.187
lwrist 13.8722
lhand -24.1424 16.9391
lfingers 7.12502
lthumb 2.33979 46.906
rfemur -12.5747 2.24315 22.2151
rtibia 39.1036
rfoot -25.8292 13.3624
rtoes 0.867383
lfemur -13.5743 -2.7096 -16.3957
ltibia 35.4035
lfoot -15.4495 -12.0632
ltoes 24.7966
1951
root 9.25465 17.6307 21.031 406.91 -85.2418 -47.2707
lowerback 7.11503 0.955959 1.72896
upperback 2.86469 1.32912 3.36893
thorax -1.0714 0.610536 2.39654
lowerneck -10.2246 -0.215685 -9.80602
upperneck 41.417 -1.41269 3.84729
head 16.8212 -2.28216 3.07255
rclavicle -4.96962e-016 4.6118e-014
rhumerus -33.9797 -15.5141 -71.188
rradius 31.5064
rwrist -12.4853
rhand -24.5052 10.0459
rfingers 7.12502
rthumb 1.98949 -19.9245
lclavicle -4.96962e-016 4.6118e-014
lhumerus -34.2102 5.86428 76.421
lradius 64.1245
lwrist 13.2445
lhand -24.0853 16.5021
lfingers 7.12502
lthumb 2.39501 46.4684
rfemur -12.3719 4.34326 22.5385
rtibia 39.1772
rfoot -25.8911 11.0783
rtoes -1.09906
lfemur -13.4078 -3.06691 -16.3594
ltibia 35.3677
lfoot -15.3458 -11.872
ltoes 25.8957
1952
root 9.23783 17.6219 21.0482 407.163 -85.4025 -47.4005
lowerback 7.01966 1.0168 1.61079
upperback 2.85379 1.4011 3.32365
thorax -1.03382 0.647314 2.41163
lowerneck -10.1902 -0.207323 -9.6369
upperneck 41.3978 -1.43219 3.80222
head 16.8 -2.26834 3.01786
rclavicle -6.95746e-015 -1.98785e-014
rhumerus -34.0737 -15.8537 -71.2174
rradius 31.7319
rwrist -12.5556
rhand -24.7011 9.99815
rfingers 7.12502
rthumb 1.80029 -19.974
lclavicle -6.95746e-015 -1.98785e-014
lhumerus -34.2002 5.43913 76.4392
lradius 64.0695
lwrist 12.6104
lhand -23.8823 16.3267
lfingers 7.12502
lthumb 2.59101 46.2907
rfemur -12.6149 3.27412 22.2107
rtibia 39.3296
rfoot -26.1308 12.167
rtoes -1.38555
lfemur -13.4774 -2.85336 -16.5387
ltibia 35.3576
lfoot -15.2912 -12.0173
ltoes 27.4748
1953
root 9.22049 17.6174 21.0632 407.487 -85.5852 -47.6011
lowerback 6.93091 1.02532 1.46397
upperback 2.84383 1.40186 3.29588
thorax -0.997951 0.648016 2.46658
lowerneck -10.0578 -0.166283 -9.21264
upperneck 41.2637 -1.31817 3.36751
head 16.6735 -2.20572 2.75896
rclavicle 1.87852e-014 2.78299e-014
rhumerus -34.2175 -15.7774 -71.4126
rradius 32.2111
rwrist -12.8152
rhand -24.8473 9.50506
rfingers 7.12502
rthumb 1.65908 -20.4682
lclavicle 1.87852e-014 2.78299e-014
lhumerus -34.3424 5.01334 76.413
lradius 64.0825
lwrist 12.075
lhand -23.6232 16.3726
lfingers 7.12502
lthumb 2.84127 46.3334
rfemur -12.8437 2.37397 21.8931
rtibia 39.4785
rfoot -26.2634 13.3099
rtoes -0.212886
lfemur -13.5608 -2.23776 -16.722
ltibia 35.3513
lfoot -15.4574 -12.2934
ltoes 27.8111
1954
root 9.20463 17.6175 21.0789 408.873 -85.627 -48.975
lowerback 6.97165 0.973012 1.4629
upperback 2.86852 1.33082 3.36796
thorax -0.994364 0.610839 2.54702
lowerneck -9.98744 -0.117128 -9.05222
upperneck 41.1513 -1.11613 2.94078
head 16.5744 -2.14833 2.56759
rclavicle -6.85807e-015 -1.51076e-014
rhumerus -34.3363 -15.3411 -71.6454
rradius 32.7365
rwrist -13.1093
rhand -24.8163 9.1036
rfingers 7.12502
rthumb 1.68899 -20.8695
lclavicle -6.85807e-015 -1.51076e-014
lhumerus -34.4142 5.00256 76.4261
lradius 63.9649
lwrist 11.4214
lhand -23.2964 16.3943
lfingers 7.12502
lthumb 3.15691 46.3507
rfemur -12.9728 1.38756 21.7521
rtibia 39.6898
rfoot -26.3657 14.6099
rtoes 1.59117
lfemur -13.5126 -1.85447 -16.6787
ltibia 35.3617
lfoot -15.2098 -12.674
ltoes 27.2301
1955
root 9.19072 17.614 21.0972 407.29 -85.8148 -47.4427
lowerback 7.1014 0.928045 1.1036
upperback 2.91932 1.24896 3.44874
thorax -1.02075 0.566344 2.83829
lowerneck -10.0756 -0.11145 -9.29507
upperneck 41.1408 -1.00224 2.87553
head 16.5862 -2.14622 2.60022
rclavicle -1.12313e-014 -6.36111e-015
rhumerus -34.1246 -15.0888 -71.6875
rradius 32.6959
rwrist -13.0377
rhand -24.759 9.09493
rfingers 7.12502
rthumb 1.74431 -20.8777
lclavicle -1.12313e-014 -6.36111e-015
lhumerus -34.4462 5.22984 76.5851
lradius 63.7258
lwrist 10.5607
lhand -23.0537 16.4938
lfingers 7.12502
lthumb 3.39122 46.4466
rfemur -12.8706 2.89063 21.6324
rtibia 39.9084
rfoot -26.2702 13.1531
rtoes 1.47476
lfemur -13.3812 -1.73672 -16.9203
ltibia 35.3525
lfoot -14.5655 -13.1816
ltoes 28.7925
1956
root 9.17546 17.6027 21.1174 405.247 -86.0536 -45.4362
lowerback 7.16691 0.845602 0.665888
upperback 3.00529 1.10742 3.56452
thorax -0.973022 0.490264 3.21676
lowerneck -10.2765 -0.0342753 -9.76183
upperneck 41.164 -0.761514 2.9649
head 16.635 -2.10687 2.76441
rclavicle 1.88845e-015 -7.95139e-016
rhumerus -33.6286 -14.9033 -71.6407
rradius 32.4274
rwrist -12.8961
rhand -24.6767 9.38981
rfingers 7.12502
rthumb 1.82379 -20.5821
lclavicle 1.88845e-015 -7.95139e-016
lhumerus -34.5606 5.44738 76.7658
lradius 63.4864
lwrist 9.81947
lhand -22.8058 16.5264
lfingers 7.12502
lthumb 3.63059 46.4752
rfemur -12.841 3.56737 21.3406
rtibia 40.1475
rfoot -26.2207 12.6187
rtoes 0.695058
lfemur -13.2424 -1.7566 -17.2797
ltibia 35.3567
lfoot -14.3198 -13.3891
ltoes 30.4968
1957
root 9.16042 17.5888 21.1371 404.692 -86.2602 -44.9095
lowerback 7.19157 0.813763 0.500496
upperback 3.07202 1.05072 3.58247
thorax -0.918195 0.459173 3.33364
lowerneck -10.3288 0.0842754 -10.0255
upperneck 41.1745 -0.525217 3.03326
head 16.6343 -2.0416 2.88107
rclavicle -1.2424e-014 2.78299e-014
rhumerus -33.3661 -14.6836 -71.7005
rradius 32.505
rwrist -13.029
rhand -24.8 9.5921
rfingers 7.12502
rthumb 1.70468 -20.3808
lclavicle -1.2424e-014 2.78299e-014
lhumerus -34.6638 5.37605 76.8317
lradius 63.2061
lwrist 9.27758
lhand -22.4067 16.4638
lfingers 7.12502
lthumb 4.01606 46.4057
rfemur -12.9221 3.31519 21.0357
rtibia 40.4395
rfoot -26.2966 12.9916
rtoes -1.18705
lfemur -13.1069 -1.89814 -17.5639
ltibia 35.3541
lfoot -14.4018 -13.2126
ltoes 30.915
1958
root 9.14267 17.583 21.16 404.266 -86.5028 -44.4637
lowerback 7.16375 0.797356 0.302483
upperback 3.06552 1.01622 3.62807
thorax -0.911787 0.440416 3.49605
lowerneck -10.1905 0.228405 -10.2514
upperneck 41.1546 -0.270714 3.04407
head 16.566 -1.97185 2.96504
rclavicle -9.83984e-015 1.59028e-015
rhumerus -33.4132 -13.6229 -71.7888
rradius 33.0528
rwrist -13.6716
rhand -24.7869 9.33097
rfingers 7.12502
rthumb 1.71737 -20.6419
lclavicle -9.83984e-015 1.59028e-015
lhumerus -34.9447 5.44404 77.0144
lradius 62.8998
lwrist 8.75801
lhand -22.3021 16.3152
lfingers 7.12502
lthumb 4.11703 46.2552
rfemur -13.0878 2.82164 20.6521
rtibia 40.7929
rfoot -26.3814 13.5955
rtoes -2.21197
lfemur -13.0458 -1.96848 -17.89
ltibia 35.3632
lfoot -14.6182 -12.8934
ltoes 30.4057
1959
root 9.12073 17.5754 21.1824 402.24 -86.8443 -42.4078
lowerback 7.07045 0.847386 -0.109295
upperback 3.09467 1.05501 3.64263
thorax -0.839874 0.4568 3.74226
lowerneck -10.1133 0.240134 -10.4925
upperneck 41.1108 -0.253775 3.18404
head 16.5222 -1.98171 3.0724
rclavicle -6.4605e-015 -5.88403e-014
rhumerus -33.6001 -13.7618 -71.7933
rradius 33.5697
rwrist -13.0698
rhand -24.2268 9.377
rfingers 7.12502
rthumb 2.25831 -20.5908
lclavicle -6.4605e-015 -5.88403e-014
lhumerus -35.1326 5.54318 77.3036
lradius 62.5316
lwrist 8.17693
lhand -22.2144 16.4197
lfingers 7.12502
lthumb 4.20173 46.358
rfemur -13.236 2.65723 20.1591
rtibia 41.1753
rfoot -26.3446 14.0752
rtoes -0.641751
lfemur -12.9947 -1.84369 -18.3587
ltibia 35.434
lfoot -14.8955 -12.7545
ltoes 29.6175
